<mxfile host="app.diagrams.net" modified="2024-02-01T08:43:03.955Z" agent="Mozilla/5.0 (Windows NT 10.0; Win64; x64) AppleWebKit/537.36 (KHTML, like Gecko) Chrome/121.0.0.0 Safari/537.36" etag="xEzZS12VcjEI5JvihRRX" version="23.1.0" type="github">
  <diagram name="PÃ¡gina-1" id="3UjtbM3iIOZD7bgEF5LP">
    <mxGraphModel dx="880" dy="506" grid="1" gridSize="10" guides="0" tooltips="1" connect="1" arrows="1" fold="1" page="1" pageScale="1" pageWidth="827" pageHeight="1169" math="0" shadow="0">
      <root>
        <mxCell id="0" />
        <mxCell id="1" parent="0" />
      </root>
    </mxGraphModel>
  </diagram>
</mxfile>
